<?xml version="1.0" encoding="utf-8"?><svg xml:space="preserve" viewBox="0 0 100 100" y="0" x="0" xmlns="http://www.w3.org/2000/svg" id="圖層_1" version="1.1" width="64px" height="64px" xmlns:xlink="http://www.w3.org/1999/xlink" style="width:100%;height:100%;background-size:initial;background-repeat-y:initial;background-repeat-x:initial;background-position-y:initial;background-position-x:initial;background-origin:initial;background-image:initial;background-color:rgb(255, 255, 255);background-clip:initial;background-attachment:initial;animation-play-state:paused" ><g class="ldl-scale" style="transform-origin:50% 50%;transform:rotate(0deg) scale(0.8, 0.8);animation-play-state:paused" ><g style="animation-play-state:paused" ><path fill="#e0e0e0" d="M31.3 57.5h-.5c-4.1 0-7.7-3.2-7.8-7.3-.1-4.2 3.3-7.7 7.5-7.7h10.8c2.5 0 4.7-2 4.7-4.4V38v-.1c0-2.5-2.2-4.4-4.7-4.4H27.8c-4.1 0-7.7-3.2-7.8-7.3-.1-4.2 3.3-7.7 7.5-7.7h55.7c4.1 0 7.7 3.2 7.8 7.3.1 4.2-3.3 7.7-7.5 7.7H60.7c-2.5 0-4.7 2-4.7 4.4v.2c0 2.5 2.2 4.4 4.7 4.4h2.5c4.1 0 7.7 3.2 7.8 7.3.1 4.2-3.3 7.7-7.5 7.7H50.7c-2.5 0-4.7 2-4.7 4.4v.2c0 2.5 2.2 4.4 4.7 4.4h4.5c4.1 0 7.7 3.2 7.8 7.3.1 4.2-3.3 7.7-7.5 7.7H16.8c-4.1 0-7.7-3.2-7.8-7.3-.1-4.2 3.3-7.7 7.5-7.7h14.8c2.5 0 4.7-2 4.7-4.4V62v-.1c0-2.4-2.2-4.4-4.7-4.4z" style="fill:rgb(225, 231, 246);animation-play-state:paused" ></path></g>
<metadata xmlns:d="https://loading.io/stock/" style="animation-play-state:paused" ><d:name style="animation-play-state:paused" >cloud</d:name>
<d:tags style="animation-play-state:paused" >weather,mist,fog,smoke,cloud,weather</d:tags>
<d:license style="animation-play-state:paused" >by</d:license>
<d:slug style="animation-play-state:paused" >wmx98c</d:slug></metadata></g><!-- generated by https://loading.io/ --></svg>