<?xml version="1.0" encoding="utf-8"?><svg xml:space="preserve" viewBox="0 0 100 100" y="0" x="0" xmlns="http://www.w3.org/2000/svg" id="圖層_1" version="1.1" width="64px" height="64px" xmlns:xlink="http://www.w3.org/1999/xlink" style="width:100%;height:100%;background-size:initial;background-repeat-y:initial;background-repeat-x:initial;background-position-y:initial;background-position-x:initial;background-origin:initial;background-image:initial;background-color:rgb(255, 255, 255);background-clip:initial;background-attachment:initial;animation-play-state:paused" ><g class="ldl-scale" style="transform-origin:50% 50%;transform:rotate(0deg) scale(0.8, 0.8);animation-play-state:paused" ><path fill="#b5b5b5" clip-rule="evenodd" fill-rule="evenodd" d="M71.8 31.1c.5-1.5.8-3.2.8-4.9 0-8.9-7.2-16.2-16.2-16.2-6.2 0-11.6 3.5-14.3 8.6-1-.3-2.1-.5-3.2-.5-6 0-10.8 4.8-10.8 10.8 0 .7.1 1.5.2 2.2-5.5.9-9.7 5.6-9.7 11.3 0 6.3 5.1 11.5 11.5 11.5h39.8c6.3 0 11.5-5.1 11.5-11.5 0-5.7-4.2-10.4-9.6-11.3z" style="fill:rgb(28, 108, 220);animation-play-state:paused" ></path>
<circle fill="#e0e0e0" clip-rule="evenodd" fill-rule="evenodd" r="4.6" cy="61.7" cx="33.8" style="fill:rgb(224, 224, 224);animation-play-state:paused" ></circle>
<circle fill="#e0e0e0" clip-rule="evenodd" fill-rule="evenodd" r="4.6" cy="53.8" cx="50" style="fill:rgb(224, 224, 224);animation-play-state:paused" ></circle>
<circle fill="#e0e0e0" clip-rule="evenodd" fill-rule="evenodd" r="4.6" cy="68.5" cx="56.3" style="fill:rgb(224, 224, 224);animation-play-state:paused" ></circle>
<circle fill="#e0e0e0" clip-rule="evenodd" fill-rule="evenodd" r="4.6" cy="61.7" cx="69.5" style="fill:rgb(224, 224, 224);animation-play-state:paused" ></circle>
<circle fill="#e0e0e0" clip-rule="evenodd" fill-rule="evenodd" r="4.6" cy="73.5" cx="40.1" style="fill:rgb(224, 224, 224);animation-play-state:paused" ></circle>
<circle fill="#e0e0e0" clip-rule="evenodd" fill-rule="evenodd" r="4.6" cy="82" cx="65.6" style="fill:rgb(224, 224, 224);animation-play-state:paused" ></circle>
<circle fill="#e0e0e0" clip-rule="evenodd" fill-rule="evenodd" r="4.6" cy="84.2" cx="30.8" style="fill:rgb(224, 224, 224);animation-play-state:paused" ></circle>
<circle fill="#e0e0e0" clip-rule="evenodd" fill-rule="evenodd" r="4.6" cy="85.4" cx="50" style="fill:rgb(224, 224, 224);animation-play-state:paused" ></circle>
<metadata xmlns:d="https://loading.io/stock/" style="animation-play-state:paused" ><d:name style="animation-play-state:paused" >snow</d:name>
<d:tags style="animation-play-state:paused" >storm,cold,cool,blizzard,snowfall,hail,snow,weather</d:tags>
<d:license style="animation-play-state:paused" >by</d:license>
<d:slug style="animation-play-state:paused" >n78h7d</d:slug></metadata></g><!-- generated by https://loading.io/ --></svg>